<svg id="Capa_1" enable-background="new 0 0 512 512" height="512" viewBox="0 0 512 512" width="512" xmlns="http://www.w3.org/2000/svg"><path d="m512 288.134c0-25.989-21.145-47.134-47.134-47.134h-9.1v-45.25c0-24.619-11.884-46.513-30.217-60.25 18.333-13.737 30.217-35.631 30.217-60.25 0-41.493-33.758-75.25-75.252-75.25-41.492 0-75.248 33.757-75.248 75.25 0 24.619 11.884 46.513 30.215 60.25-18.331 13.737-30.215 35.631-30.215 60.25v45.25h-122.633v-34.267h33.2c30.419 0 55.167-24.747 55.167-55.166v-96.4c0-30.419-24.748-55.167-55.167-55.167h-160.667c-30.419 0-55.166 24.748-55.166 55.167v96.4c0 30.419 24.747 55.166 55.166 55.166h33.2v34.267h-41.233c-25.989 0-47.133 21.145-47.133 47.134 0 20.745 13.479 38.391 32.133 44.672v164.194c0 8.284 6.716 15 15 15h64.267c8.284 0 15-6.716 15-15v-17.133h259.2v17.133c0 8.284 6.716 15 15 15h64.267c8.284 0 15-6.716 15-15v-164.194c18.655-6.282 32.133-23.927 32.133-44.672zm-176.733-212.884c0-24.951 20.298-45.25 45.248-45.25 24.952 0 45.252 20.299 45.252 45.25s-20.3 45.25-45.252 45.25c-24.95 0-45.248-20.299-45.248-45.25zm0 120.5c0-24.951 20.298-45.25 45.248-45.25 24.952 0 45.252 20.299 45.252 45.25v45.25h-90.5zm-305.267-44.183v-96.4c0-13.877 11.289-25.167 25.166-25.167h160.667c13.877 0 25.167 11.29 25.167 25.167v96.4c0 13.877-11.29 25.166-25.167 25.166h-48.2-64.267-48.2c-13.877 0-25.166-11.289-25.166-25.166zm88.366 55.166h34.267v34.267h-34.267zm-21.967 275.267h-34.266v-146.732h34.267v129.6 17.132zm30-32.133v-114.6h259.2v114.6zm323.467 32.133h-34.266v-17.133-129.6h34.267v146.733zm15-176.732h-64.266-289.2-64.267c-9.447 0-17.133-7.687-17.133-17.134s7.686-17.134 17.133-17.134h56.233 64.267 152.634 120.5 24.1c9.447 0 17.134 7.686 17.134 17.134s-7.687 17.134-17.135 17.134z"/></svg>